<mxfile host="Electron" modified="2024-05-02T00:41:14.494Z" agent="Mozilla/5.0 (Windows NT 10.0; Win64; x64) AppleWebKit/537.36 (KHTML, like Gecko) draw.io/24.2.5 Chrome/120.0.6099.109 Electron/28.1.0 Safari/537.36" etag="mZ4GsuI8fXBaJByuwnAU" version="24.2.5" type="device">
  <diagram name="Page-1" id="txfcCS9ttzZGqAP_y7Wi">
    <mxGraphModel dx="2350" dy="887" grid="1" gridSize="10" guides="1" tooltips="1" connect="1" arrows="1" fold="1" page="1" pageScale="1" pageWidth="850" pageHeight="1100" math="0" shadow="0">
      <root>
        <mxCell id="0" />
        <mxCell id="1" parent="0" />
        <mxCell id="skWBgFnhxe72LEznJVyA-2" value="&lt;font style=&quot;font-size: 19px;&quot;&gt;Students&lt;/font&gt;" style="rounded=0;whiteSpace=wrap;html=1;" parent="1" vertex="1">
          <mxGeometry x="80" y="400" width="120" height="60" as="geometry" />
        </mxCell>
        <mxCell id="skWBgFnhxe72LEznJVyA-4" value="&lt;span id=&quot;docs-internal-guid-76b18941-7fff-288a-0268-15c4c13e1f40&quot;&gt;&lt;span style=&quot;font-size: 14pt; font-family: Arial, sans-serif; background-color: transparent; font-variant-numeric: normal; font-variant-east-asian: normal; font-variant-alternates: normal; font-variant-position: normal; vertical-align: baseline; white-space-collapse: preserve;&quot;&gt;Departments&lt;/span&gt;&lt;/span&gt;" style="rounded=0;whiteSpace=wrap;html=1;" parent="1" vertex="1">
          <mxGeometry x="680" y="400" width="120" height="60" as="geometry" />
        </mxCell>
        <mxCell id="skWBgFnhxe72LEznJVyA-6" value="&lt;font style=&quot;font-size: 19px;&quot;&gt;Instructor&lt;/font&gt;" style="rounded=0;whiteSpace=wrap;html=1;" parent="1" vertex="1">
          <mxGeometry x="680" y="745" width="120" height="60" as="geometry" />
        </mxCell>
        <mxCell id="skWBgFnhxe72LEznJVyA-7" value="StudentName" style="ellipse;whiteSpace=wrap;html=1;" parent="1" vertex="1">
          <mxGeometry x="-80" y="320" width="80" height="50" as="geometry" />
        </mxCell>
        <mxCell id="skWBgFnhxe72LEznJVyA-8" value="FirstName" style="ellipse;whiteSpace=wrap;html=1;" parent="1" vertex="1">
          <mxGeometry x="-140" y="250" width="80" height="50" as="geometry" />
        </mxCell>
        <mxCell id="skWBgFnhxe72LEznJVyA-9" value="St_ID" style="ellipse;whiteSpace=wrap;html=1;" parent="1" vertex="1">
          <mxGeometry x="-80" y="400" width="80" height="50" as="geometry" />
        </mxCell>
        <mxCell id="skWBgFnhxe72LEznJVyA-10" value="St_Age&lt;div&gt;&lt;br&gt;&lt;/div&gt;" style="ellipse;whiteSpace=wrap;html=1;" parent="1" vertex="1">
          <mxGeometry x="30" y="320" width="80" height="50" as="geometry" />
        </mxCell>
        <mxCell id="skWBgFnhxe72LEznJVyA-11" value="St_Address" style="ellipse;whiteSpace=wrap;html=1;" parent="1" vertex="1">
          <mxGeometry x="140" y="320" width="80" height="50" as="geometry" />
        </mxCell>
        <mxCell id="skWBgFnhxe72LEznJVyA-12" value="" style="endArrow=none;html=1;rounded=0;entryX=1;entryY=1;entryDx=0;entryDy=0;exitX=0.63;exitY=0.048;exitDx=0;exitDy=0;exitPerimeter=0;" parent="1" source="skWBgFnhxe72LEznJVyA-7" target="skWBgFnhxe72LEznJVyA-8" edge="1">
          <mxGeometry width="50" height="50" relative="1" as="geometry">
            <mxPoint x="-105" y="320" as="sourcePoint" />
            <mxPoint x="-55" y="270" as="targetPoint" />
          </mxGeometry>
        </mxCell>
        <mxCell id="skWBgFnhxe72LEznJVyA-13" value="" style="endArrow=none;html=1;rounded=0;entryX=1;entryY=1;entryDx=0;entryDy=0;exitX=0.75;exitY=0;exitDx=0;exitDy=0;" parent="1" source="skWBgFnhxe72LEznJVyA-2" target="skWBgFnhxe72LEznJVyA-11" edge="1">
          <mxGeometry width="50" height="50" relative="1" as="geometry">
            <mxPoint x="320" y="460" as="sourcePoint" />
            <mxPoint x="370" y="410" as="targetPoint" />
          </mxGeometry>
        </mxCell>
        <mxCell id="skWBgFnhxe72LEznJVyA-14" value="" style="endArrow=none;html=1;rounded=0;entryX=0.655;entryY=1.04;entryDx=0;entryDy=0;entryPerimeter=0;exitX=0.167;exitY=0.04;exitDx=0;exitDy=0;exitPerimeter=0;" parent="1" source="skWBgFnhxe72LEznJVyA-2" target="skWBgFnhxe72LEznJVyA-10" edge="1">
          <mxGeometry width="50" height="50" relative="1" as="geometry">
            <mxPoint x="330" y="470" as="sourcePoint" />
            <mxPoint x="380" y="420" as="targetPoint" />
          </mxGeometry>
        </mxCell>
        <mxCell id="skWBgFnhxe72LEznJVyA-15" value="" style="endArrow=none;html=1;rounded=0;entryX=1;entryY=0.5;entryDx=0;entryDy=0;exitX=0;exitY=0.5;exitDx=0;exitDy=0;" parent="1" source="skWBgFnhxe72LEznJVyA-2" target="skWBgFnhxe72LEznJVyA-9" edge="1">
          <mxGeometry width="50" height="50" relative="1" as="geometry">
            <mxPoint x="-10" y="510" as="sourcePoint" />
            <mxPoint x="40" y="460" as="targetPoint" />
          </mxGeometry>
        </mxCell>
        <mxCell id="skWBgFnhxe72LEznJVyA-16" value="" style="endArrow=none;html=1;rounded=0;entryX=1;entryY=1;entryDx=0;entryDy=0;exitX=0;exitY=0.25;exitDx=0;exitDy=0;" parent="1" source="skWBgFnhxe72LEznJVyA-2" target="skWBgFnhxe72LEznJVyA-7" edge="1">
          <mxGeometry width="50" height="50" relative="1" as="geometry">
            <mxPoint x="310" y="450" as="sourcePoint" />
            <mxPoint x="360" y="400" as="targetPoint" />
          </mxGeometry>
        </mxCell>
        <mxCell id="skWBgFnhxe72LEznJVyA-17" value="" style="endArrow=none;html=1;rounded=0;" parent="1" edge="1">
          <mxGeometry width="50" height="50" relative="1" as="geometry">
            <mxPoint x="-10" y="440" as="sourcePoint" />
            <mxPoint x="-70" y="440" as="targetPoint" />
          </mxGeometry>
        </mxCell>
        <mxCell id="skWBgFnhxe72LEznJVyA-18" value="LastName" style="ellipse;whiteSpace=wrap;html=1;" parent="1" vertex="1">
          <mxGeometry x="-40" y="230" width="80" height="50" as="geometry" />
        </mxCell>
        <mxCell id="skWBgFnhxe72LEznJVyA-19" value="" style="endArrow=none;html=1;rounded=0;entryX=0.32;entryY=0.936;entryDx=0;entryDy=0;entryPerimeter=0;" parent="1" target="skWBgFnhxe72LEznJVyA-18" edge="1">
          <mxGeometry width="50" height="50" relative="1" as="geometry">
            <mxPoint x="-30" y="320" as="sourcePoint" />
            <mxPoint x="-21" y="280" as="targetPoint" />
          </mxGeometry>
        </mxCell>
        <mxCell id="skWBgFnhxe72LEznJVyA-21" value="Dep_Name" style="ellipse;whiteSpace=wrap;html=1;" parent="1" vertex="1">
          <mxGeometry x="700" y="320" width="80" height="50" as="geometry" />
        </mxCell>
        <mxCell id="skWBgFnhxe72LEznJVyA-22" value="&lt;div&gt;Depi_ID&lt;/div&gt;" style="ellipse;whiteSpace=wrap;html=1;" parent="1" vertex="1">
          <mxGeometry x="590" y="320" width="80" height="50" as="geometry" />
        </mxCell>
        <mxCell id="skWBgFnhxe72LEznJVyA-23" value="" style="endArrow=none;html=1;rounded=0;exitX=1;exitY=1;exitDx=0;exitDy=0;entryX=0;entryY=1;entryDx=0;entryDy=0;" parent="1" source="skWBgFnhxe72LEznJVyA-22" target="skWBgFnhxe72LEznJVyA-22" edge="1">
          <mxGeometry width="50" height="50" relative="1" as="geometry">
            <mxPoint x="660" y="360" as="sourcePoint" />
            <mxPoint x="600" y="360" as="targetPoint" />
          </mxGeometry>
        </mxCell>
        <mxCell id="skWBgFnhxe72LEznJVyA-25" value="" style="endArrow=none;html=1;rounded=0;entryX=0.5;entryY=1;entryDx=0;entryDy=0;exitX=0;exitY=0;exitDx=0;exitDy=0;" parent="1" source="skWBgFnhxe72LEznJVyA-4" target="skWBgFnhxe72LEznJVyA-22" edge="1">
          <mxGeometry width="50" height="50" relative="1" as="geometry">
            <mxPoint x="310" y="450" as="sourcePoint" />
            <mxPoint x="360" y="400" as="targetPoint" />
          </mxGeometry>
        </mxCell>
        <mxCell id="skWBgFnhxe72LEznJVyA-26" value="" style="endArrow=none;html=1;rounded=0;entryX=0.5;entryY=1;entryDx=0;entryDy=0;exitX=0.5;exitY=0;exitDx=0;exitDy=0;" parent="1" source="skWBgFnhxe72LEznJVyA-4" target="skWBgFnhxe72LEznJVyA-21" edge="1">
          <mxGeometry width="50" height="50" relative="1" as="geometry">
            <mxPoint x="740" y="390" as="sourcePoint" />
            <mxPoint x="360" y="400" as="targetPoint" />
          </mxGeometry>
        </mxCell>
        <mxCell id="skWBgFnhxe72LEznJVyA-27" value="&lt;span style=&quot;font-size: 19px;&quot;&gt;Courses&lt;/span&gt;" style="rounded=0;whiteSpace=wrap;html=1;" parent="1" vertex="1">
          <mxGeometry x="80" y="750" width="120" height="60" as="geometry" />
        </mxCell>
        <mxCell id="skWBgFnhxe72LEznJVyA-28" value="&lt;font size=&quot;1&quot; face=&quot;Arial, sans-serif&quot;&gt;&lt;span style=&quot;white-space-collapse: preserve; font-size: 13px;&quot;&gt;CRS_NAME&lt;/span&gt;&lt;/font&gt;" style="ellipse;whiteSpace=wrap;html=1;" parent="1" vertex="1">
          <mxGeometry x="-80" y="890" width="80" height="50" as="geometry" />
        </mxCell>
        <mxCell id="skWBgFnhxe72LEznJVyA-30" value="CRS_ID" style="ellipse;whiteSpace=wrap;html=1;" parent="1" vertex="1">
          <mxGeometry x="-80" y="750" width="80" height="50" as="geometry" />
        </mxCell>
        <mxCell id="skWBgFnhxe72LEznJVyA-31" value="CRS_Duration" style="ellipse;whiteSpace=wrap;html=1;" parent="1" vertex="1">
          <mxGeometry x="20" y="890" width="80" height="50" as="geometry" />
        </mxCell>
        <mxCell id="skWBgFnhxe72LEznJVyA-32" value="CRS_Description" style="ellipse;whiteSpace=wrap;html=1;" parent="1" vertex="1">
          <mxGeometry x="110" y="880" width="100" height="50" as="geometry" />
        </mxCell>
        <mxCell id="skWBgFnhxe72LEznJVyA-34" value="" style="endArrow=none;html=1;rounded=0;entryX=0.5;entryY=0;entryDx=0;entryDy=0;exitX=0.75;exitY=1;exitDx=0;exitDy=0;" parent="1" source="skWBgFnhxe72LEznJVyA-27" target="skWBgFnhxe72LEznJVyA-32" edge="1">
          <mxGeometry width="50" height="50" relative="1" as="geometry">
            <mxPoint x="320" y="810" as="sourcePoint" />
            <mxPoint x="370" y="760" as="targetPoint" />
          </mxGeometry>
        </mxCell>
        <mxCell id="skWBgFnhxe72LEznJVyA-35" value="" style="endArrow=none;html=1;rounded=0;exitX=0.313;exitY=1.047;exitDx=0;exitDy=0;exitPerimeter=0;" parent="1" source="skWBgFnhxe72LEznJVyA-27" target="skWBgFnhxe72LEznJVyA-31" edge="1">
          <mxGeometry width="50" height="50" relative="1" as="geometry">
            <mxPoint x="330" y="820" as="sourcePoint" />
            <mxPoint x="80" y="930" as="targetPoint" />
          </mxGeometry>
        </mxCell>
        <mxCell id="skWBgFnhxe72LEznJVyA-36" value="" style="endArrow=none;html=1;rounded=0;entryX=1;entryY=0.5;entryDx=0;entryDy=0;exitX=0;exitY=0.5;exitDx=0;exitDy=0;" parent="1" source="skWBgFnhxe72LEznJVyA-27" target="skWBgFnhxe72LEznJVyA-30" edge="1">
          <mxGeometry width="50" height="50" relative="1" as="geometry">
            <mxPoint x="-10" y="860" as="sourcePoint" />
            <mxPoint x="40" y="810" as="targetPoint" />
          </mxGeometry>
        </mxCell>
        <mxCell id="skWBgFnhxe72LEznJVyA-37" value="" style="endArrow=none;html=1;rounded=0;entryX=0.6;entryY=0.04;entryDx=0;entryDy=0;exitX=0.06;exitY=1.02;exitDx=0;exitDy=0;exitPerimeter=0;entryPerimeter=0;" parent="1" source="skWBgFnhxe72LEznJVyA-27" target="skWBgFnhxe72LEznJVyA-28" edge="1">
          <mxGeometry width="50" height="50" relative="1" as="geometry">
            <mxPoint x="310" y="800" as="sourcePoint" />
            <mxPoint x="360" y="750" as="targetPoint" />
          </mxGeometry>
        </mxCell>
        <mxCell id="skWBgFnhxe72LEznJVyA-38" value="" style="endArrow=none;html=1;rounded=0;" parent="1" edge="1">
          <mxGeometry width="50" height="50" relative="1" as="geometry">
            <mxPoint x="-10" y="790" as="sourcePoint" />
            <mxPoint x="-70" y="790" as="targetPoint" />
          </mxGeometry>
        </mxCell>
        <mxCell id="8QwhjRT-HZLc971NtxKG-1" value="Take" style="rhombus;whiteSpace=wrap;html=1;" parent="1" vertex="1">
          <mxGeometry x="100" y="560" width="80" height="80" as="geometry" />
        </mxCell>
        <mxCell id="8QwhjRT-HZLc971NtxKG-2" value="Teach" style="rhombus;whiteSpace=wrap;html=1;" parent="1" vertex="1">
          <mxGeometry x="385" y="740" width="80" height="80" as="geometry" />
        </mxCell>
        <mxCell id="8QwhjRT-HZLc971NtxKG-3" value="Work" style="rhombus;whiteSpace=wrap;html=1;" parent="1" vertex="1">
          <mxGeometry x="700" y="560" width="80" height="80" as="geometry" />
        </mxCell>
        <mxCell id="bg0LxutkBQc4Puj3F7RM-1" value="Ins_HourRate" style="ellipse;whiteSpace=wrap;html=1;align=center;" parent="1" vertex="1">
          <mxGeometry x="760" y="885" width="100" height="40" as="geometry" />
        </mxCell>
        <mxCell id="bg0LxutkBQc4Puj3F7RM-2" value="Ins_ID" style="ellipse;whiteSpace=wrap;html=1;align=center;fontStyle=4;" parent="1" vertex="1">
          <mxGeometry x="430" y="885" width="100" height="40" as="geometry" />
        </mxCell>
        <mxCell id="bg0LxutkBQc4Puj3F7RM-3" value="ins_salary" style="ellipse;whiteSpace=wrap;html=1;align=center;" parent="1" vertex="1">
          <mxGeometry x="650" y="885" width="100" height="40" as="geometry" />
        </mxCell>
        <mxCell id="bg0LxutkBQc4Puj3F7RM-4" value="ins_Name" style="ellipse;whiteSpace=wrap;html=1;align=center;" parent="1" vertex="1">
          <mxGeometry x="540" y="895" width="100" height="40" as="geometry" />
        </mxCell>
        <mxCell id="bg0LxutkBQc4Puj3F7RM-5" value="ins_bounse" style="ellipse;whiteSpace=wrap;html=1;align=center;" parent="1" vertex="1">
          <mxGeometry x="870" y="885" width="100" height="40" as="geometry" />
        </mxCell>
        <mxCell id="bg0LxutkBQc4Puj3F7RM-10" value="ins_address" style="ellipse;shape=doubleEllipse;margin=3;whiteSpace=wrap;html=1;align=center;" parent="1" vertex="1">
          <mxGeometry x="880" y="805" width="100" height="40" as="geometry" />
        </mxCell>
        <mxCell id="bg0LxutkBQc4Puj3F7RM-11" value="" style="endArrow=none;html=1;rounded=0;exitX=0.5;exitY=0;exitDx=0;exitDy=0;entryX=0;entryY=1;entryDx=0;entryDy=0;" parent="1" source="bg0LxutkBQc4Puj3F7RM-2" target="skWBgFnhxe72LEznJVyA-6" edge="1">
          <mxGeometry width="50" height="50" relative="1" as="geometry">
            <mxPoint x="590" y="840" as="sourcePoint" />
            <mxPoint x="640" y="790" as="targetPoint" />
          </mxGeometry>
        </mxCell>
        <mxCell id="bg0LxutkBQc4Puj3F7RM-12" value="" style="endArrow=none;html=1;rounded=0;exitX=0.392;exitY=0.015;exitDx=0;exitDy=0;exitPerimeter=0;entryX=0;entryY=1;entryDx=0;entryDy=0;" parent="1" source="bg0LxutkBQc4Puj3F7RM-4" target="skWBgFnhxe72LEznJVyA-6" edge="1">
          <mxGeometry width="50" height="50" relative="1" as="geometry">
            <mxPoint x="600" y="850" as="sourcePoint" />
            <mxPoint x="650" y="800" as="targetPoint" />
          </mxGeometry>
        </mxCell>
        <mxCell id="bg0LxutkBQc4Puj3F7RM-13" value="" style="endArrow=none;html=1;rounded=0;entryX=0.424;entryY=-0.005;entryDx=0;entryDy=0;entryPerimeter=0;exitX=0.25;exitY=1;exitDx=0;exitDy=0;" parent="1" source="skWBgFnhxe72LEznJVyA-6" target="bg0LxutkBQc4Puj3F7RM-3" edge="1">
          <mxGeometry width="50" height="50" relative="1" as="geometry">
            <mxPoint x="610" y="860" as="sourcePoint" />
            <mxPoint x="660" y="810" as="targetPoint" />
          </mxGeometry>
        </mxCell>
        <mxCell id="bg0LxutkBQc4Puj3F7RM-14" value="" style="endArrow=none;html=1;rounded=0;entryX=0.34;entryY=-0.105;entryDx=0;entryDy=0;entryPerimeter=0;exitX=0.587;exitY=1.017;exitDx=0;exitDy=0;exitPerimeter=0;" parent="1" source="skWBgFnhxe72LEznJVyA-6" target="bg0LxutkBQc4Puj3F7RM-1" edge="1">
          <mxGeometry width="50" height="50" relative="1" as="geometry">
            <mxPoint x="620" y="870" as="sourcePoint" />
            <mxPoint x="670" y="820" as="targetPoint" />
          </mxGeometry>
        </mxCell>
        <mxCell id="bg0LxutkBQc4Puj3F7RM-15" value="" style="endArrow=none;html=1;rounded=0;entryX=0.436;entryY=-0.005;entryDx=0;entryDy=0;entryPerimeter=0;exitX=1.013;exitY=0.643;exitDx=0;exitDy=0;exitPerimeter=0;" parent="1" source="skWBgFnhxe72LEznJVyA-6" target="bg0LxutkBQc4Puj3F7RM-10" edge="1">
          <mxGeometry width="50" height="50" relative="1" as="geometry">
            <mxPoint x="630" y="880" as="sourcePoint" />
            <mxPoint x="680" y="830" as="targetPoint" />
          </mxGeometry>
        </mxCell>
        <mxCell id="bg0LxutkBQc4Puj3F7RM-16" value="" style="endArrow=none;html=1;rounded=0;entryX=0.328;entryY=0.015;entryDx=0;entryDy=0;entryPerimeter=0;exitX=1;exitY=1;exitDx=0;exitDy=0;" parent="1" source="skWBgFnhxe72LEznJVyA-6" target="bg0LxutkBQc4Puj3F7RM-5" edge="1">
          <mxGeometry width="50" height="50" relative="1" as="geometry">
            <mxPoint x="640" y="890" as="sourcePoint" />
            <mxPoint x="690" y="840" as="targetPoint" />
          </mxGeometry>
        </mxCell>
        <mxCell id="bg0LxutkBQc4Puj3F7RM-18" value="" style="endArrow=none;html=1;rounded=0;entryX=0.5;entryY=1;entryDx=0;entryDy=0;exitX=0.5;exitY=0;exitDx=0;exitDy=0;" parent="1" source="8QwhjRT-HZLc971NtxKG-1" target="skWBgFnhxe72LEznJVyA-2" edge="1">
          <mxGeometry width="50" height="50" relative="1" as="geometry">
            <mxPoint x="430" y="660" as="sourcePoint" />
            <mxPoint x="480" y="610" as="targetPoint" />
          </mxGeometry>
        </mxCell>
        <mxCell id="bg0LxutkBQc4Puj3F7RM-19" value="" style="endArrow=none;html=1;rounded=0;exitX=0.5;exitY=0;exitDx=0;exitDy=0;" parent="1" source="skWBgFnhxe72LEznJVyA-27" edge="1">
          <mxGeometry width="50" height="50" relative="1" as="geometry">
            <mxPoint x="140" y="730" as="sourcePoint" />
            <mxPoint x="140" y="640" as="targetPoint" />
          </mxGeometry>
        </mxCell>
        <mxCell id="bg0LxutkBQc4Puj3F7RM-21" value="Grades" style="ellipse;whiteSpace=wrap;html=1;align=center;" parent="1" vertex="1">
          <mxGeometry x="-80" y="580" width="100" height="40" as="geometry" />
        </mxCell>
        <mxCell id="bg0LxutkBQc4Puj3F7RM-22" value="" style="endArrow=none;html=1;rounded=0;entryX=1;entryY=0.5;entryDx=0;entryDy=0;exitX=0;exitY=0.5;exitDx=0;exitDy=0;" parent="1" source="8QwhjRT-HZLc971NtxKG-1" target="bg0LxutkBQc4Puj3F7RM-21" edge="1">
          <mxGeometry width="50" height="50" relative="1" as="geometry">
            <mxPoint x="430" y="660" as="sourcePoint" />
            <mxPoint x="480" y="610" as="targetPoint" />
          </mxGeometry>
        </mxCell>
        <mxCell id="bg0LxutkBQc4Puj3F7RM-30" value="M" style="text;html=1;align=center;verticalAlign=middle;whiteSpace=wrap;rounded=0;" parent="1" vertex="1">
          <mxGeometry x="90" y="460" width="60" height="30" as="geometry" />
        </mxCell>
        <mxCell id="bg0LxutkBQc4Puj3F7RM-32" value="M" style="text;html=1;align=center;verticalAlign=middle;whiteSpace=wrap;rounded=0;" parent="1" vertex="1">
          <mxGeometry x="100" y="720" width="60" height="30" as="geometry" />
        </mxCell>
        <mxCell id="bg0LxutkBQc4Puj3F7RM-33" value="" style="endArrow=none;html=1;rounded=0;entryX=0.639;entryY=0.893;entryDx=0;entryDy=0;entryPerimeter=0;exitX=1;exitY=1;exitDx=0;exitDy=0;" parent="1" source="bg0LxutkBQc4Puj3F7RM-32" target="8QwhjRT-HZLc971NtxKG-1" edge="1">
          <mxGeometry width="50" height="50" relative="1" as="geometry">
            <mxPoint x="160" y="750" as="sourcePoint" />
            <mxPoint x="160" y="640" as="targetPoint" />
          </mxGeometry>
        </mxCell>
        <mxCell id="bg0LxutkBQc4Puj3F7RM-34" value="" style="endArrow=none;html=1;rounded=0;entryX=0.5;entryY=1;entryDx=0;entryDy=0;exitX=0.5;exitY=0;exitDx=0;exitDy=0;" parent="1" edge="1">
          <mxGeometry width="50" height="50" relative="1" as="geometry">
            <mxPoint x="739.29" y="560" as="sourcePoint" />
            <mxPoint x="739.29" y="460" as="targetPoint" />
          </mxGeometry>
        </mxCell>
        <mxCell id="bg0LxutkBQc4Puj3F7RM-35" value="" style="endArrow=none;html=1;rounded=0;entryX=0.5;entryY=1;entryDx=0;entryDy=0;exitX=0.5;exitY=0;exitDx=0;exitDy=0;" parent="1" source="skWBgFnhxe72LEznJVyA-6" edge="1">
          <mxGeometry width="50" height="50" relative="1" as="geometry">
            <mxPoint x="739.29" y="740" as="sourcePoint" />
            <mxPoint x="739.29" y="640" as="targetPoint" />
          </mxGeometry>
        </mxCell>
        <mxCell id="bg0LxutkBQc4Puj3F7RM-36" value="1" style="text;html=1;align=center;verticalAlign=middle;whiteSpace=wrap;rounded=0;" parent="1" vertex="1">
          <mxGeometry x="690" y="460" width="60" height="30" as="geometry" />
        </mxCell>
        <mxCell id="bg0LxutkBQc4Puj3F7RM-37" value="M" style="text;html=1;align=center;verticalAlign=middle;whiteSpace=wrap;rounded=0;" parent="1" vertex="1">
          <mxGeometry x="730" y="715" width="60" height="30" as="geometry" />
        </mxCell>
        <mxCell id="bg0LxutkBQc4Puj3F7RM-38" value="" style="endArrow=none;html=1;rounded=0;exitX=0.375;exitY=0.875;exitDx=0;exitDy=0;exitPerimeter=0;entryX=0;entryY=1;entryDx=0;entryDy=0;" parent="1" source="8QwhjRT-HZLc971NtxKG-3" target="bg0LxutkBQc4Puj3F7RM-37" edge="1">
          <mxGeometry width="50" height="50" relative="1" as="geometry">
            <mxPoint x="430" y="540" as="sourcePoint" />
            <mxPoint x="730" y="750" as="targetPoint" />
          </mxGeometry>
        </mxCell>
        <mxCell id="bg0LxutkBQc4Puj3F7RM-39" value="Manage" style="rhombus;whiteSpace=wrap;html=1;" parent="1" vertex="1">
          <mxGeometry x="790" y="560" width="80" height="80" as="geometry" />
        </mxCell>
        <mxCell id="bg0LxutkBQc4Puj3F7RM-40" value="" style="endArrow=none;html=1;rounded=0;entryX=0.75;entryY=1;entryDx=0;entryDy=0;exitX=0.5;exitY=0;exitDx=0;exitDy=0;" parent="1" source="bg0LxutkBQc4Puj3F7RM-39" target="skWBgFnhxe72LEznJVyA-4" edge="1">
          <mxGeometry width="50" height="50" relative="1" as="geometry">
            <mxPoint x="430" y="540" as="sourcePoint" />
            <mxPoint x="480" y="490" as="targetPoint" />
          </mxGeometry>
        </mxCell>
        <mxCell id="bg0LxutkBQc4Puj3F7RM-41" value="" style="endArrow=none;html=1;rounded=0;entryX=0.75;entryY=1;entryDx=0;entryDy=0;exitX=1;exitY=1;exitDx=0;exitDy=0;" parent="1" source="bg0LxutkBQc4Puj3F7RM-37" edge="1">
          <mxGeometry width="50" height="50" relative="1" as="geometry">
            <mxPoint x="890" y="740" as="sourcePoint" />
            <mxPoint x="830" y="640" as="targetPoint" />
          </mxGeometry>
        </mxCell>
        <mxCell id="bg0LxutkBQc4Puj3F7RM-42" value="1" style="text;html=1;align=center;verticalAlign=middle;whiteSpace=wrap;rounded=0;" parent="1" vertex="1">
          <mxGeometry x="770" y="460" width="60" height="30" as="geometry" />
        </mxCell>
        <mxCell id="bg0LxutkBQc4Puj3F7RM-43" value="1" style="text;html=1;align=center;verticalAlign=middle;whiteSpace=wrap;rounded=0;" parent="1" vertex="1">
          <mxGeometry x="790" y="715" width="60" height="30" as="geometry" />
        </mxCell>
        <mxCell id="bg0LxutkBQc4Puj3F7RM-45" value="Hiring Date" style="ellipse;whiteSpace=wrap;html=1;align=center;" parent="1" vertex="1">
          <mxGeometry x="900" y="580" width="100" height="40" as="geometry" />
        </mxCell>
        <mxCell id="bg0LxutkBQc4Puj3F7RM-46" value="" style="endArrow=none;html=1;rounded=0;entryX=0;entryY=0.5;entryDx=0;entryDy=0;exitX=1;exitY=0.5;exitDx=0;exitDy=0;" parent="1" source="bg0LxutkBQc4Puj3F7RM-39" target="bg0LxutkBQc4Puj3F7RM-45" edge="1">
          <mxGeometry width="50" height="50" relative="1" as="geometry">
            <mxPoint x="430" y="540" as="sourcePoint" />
            <mxPoint x="480" y="490" as="targetPoint" />
          </mxGeometry>
        </mxCell>
        <mxCell id="bg0LxutkBQc4Puj3F7RM-47" value="" style="endArrow=none;html=1;rounded=0;exitX=1;exitY=0.5;exitDx=0;exitDy=0;entryX=0;entryY=0.5;entryDx=0;entryDy=0;" parent="1" source="skWBgFnhxe72LEznJVyA-27" target="8QwhjRT-HZLc971NtxKG-2" edge="1">
          <mxGeometry width="50" height="50" relative="1" as="geometry">
            <mxPoint x="430" y="540" as="sourcePoint" />
            <mxPoint x="480" y="490" as="targetPoint" />
          </mxGeometry>
        </mxCell>
        <mxCell id="bg0LxutkBQc4Puj3F7RM-48" value="" style="endArrow=none;html=1;rounded=0;exitX=1;exitY=0.5;exitDx=0;exitDy=0;entryX=0;entryY=0.5;entryDx=0;entryDy=0;" parent="1" target="skWBgFnhxe72LEznJVyA-6" edge="1">
          <mxGeometry width="50" height="50" relative="1" as="geometry">
            <mxPoint x="465" y="779.29" as="sourcePoint" />
            <mxPoint x="650" y="779.29" as="targetPoint" />
          </mxGeometry>
        </mxCell>
        <mxCell id="bg0LxutkBQc4Puj3F7RM-49" value="M" style="text;html=1;align=center;verticalAlign=middle;whiteSpace=wrap;rounded=0;" parent="1" vertex="1">
          <mxGeometry x="190" y="750" width="60" height="30" as="geometry" />
        </mxCell>
        <mxCell id="bg0LxutkBQc4Puj3F7RM-50" value="M" style="text;html=1;align=center;verticalAlign=middle;whiteSpace=wrap;rounded=0;" parent="1" vertex="1">
          <mxGeometry x="630" y="750" width="60" height="30" as="geometry" />
        </mxCell>
        <mxCell id="bg0LxutkBQc4Puj3F7RM-52" value="Top_name" style="ellipse;whiteSpace=wrap;html=1;align=center;" parent="1" vertex="1">
          <mxGeometry x="445" y="570" width="100" height="40" as="geometry" />
        </mxCell>
        <mxCell id="bg0LxutkBQc4Puj3F7RM-53" value="Topic" style="whiteSpace=wrap;html=1;align=center;" parent="1" vertex="1">
          <mxGeometry x="360" y="640" width="100" height="40" as="geometry" />
        </mxCell>
        <mxCell id="bg0LxutkBQc4Puj3F7RM-54" value="Top_ID" style="ellipse;whiteSpace=wrap;html=1;align=center;" parent="1" vertex="1">
          <mxGeometry x="325" y="570" width="100" height="40" as="geometry" />
        </mxCell>
        <mxCell id="bg0LxutkBQc4Puj3F7RM-55" value="" style="endArrow=none;html=1;rounded=0;exitX=0.5;exitY=1;exitDx=0;exitDy=0;entryX=1;entryY=0;entryDx=0;entryDy=0;" parent="1" source="bg0LxutkBQc4Puj3F7RM-52" target="bg0LxutkBQc4Puj3F7RM-53" edge="1">
          <mxGeometry relative="1" as="geometry">
            <mxPoint x="440" y="640" as="sourcePoint" />
            <mxPoint x="600" y="640" as="targetPoint" />
          </mxGeometry>
        </mxCell>
        <mxCell id="bg0LxutkBQc4Puj3F7RM-56" value="" style="endArrow=none;html=1;rounded=0;exitX=0.5;exitY=1;exitDx=0;exitDy=0;entryX=0.371;entryY=0.021;entryDx=0;entryDy=0;entryPerimeter=0;" parent="1" source="bg0LxutkBQc4Puj3F7RM-54" target="bg0LxutkBQc4Puj3F7RM-53" edge="1">
          <mxGeometry relative="1" as="geometry">
            <mxPoint x="385" y="610" as="sourcePoint" />
            <mxPoint x="350" y="640" as="targetPoint" />
          </mxGeometry>
        </mxCell>
        <mxCell id="bg0LxutkBQc4Puj3F7RM-58" value="Have" style="rhombus;whiteSpace=wrap;html=1;" parent="1" vertex="1">
          <mxGeometry x="240" y="670" width="50" height="50" as="geometry" />
        </mxCell>
        <mxCell id="bg0LxutkBQc4Puj3F7RM-59" value="" style="endArrow=none;html=1;rounded=0;exitX=1;exitY=0.5;exitDx=0;exitDy=0;entryX=0;entryY=0.75;entryDx=0;entryDy=0;" parent="1" source="bg0LxutkBQc4Puj3F7RM-58" target="bg0LxutkBQc4Puj3F7RM-53" edge="1">
          <mxGeometry width="50" height="50" relative="1" as="geometry">
            <mxPoint x="430" y="680" as="sourcePoint" />
            <mxPoint x="480" y="630" as="targetPoint" />
          </mxGeometry>
        </mxCell>
        <mxCell id="bg0LxutkBQc4Puj3F7RM-60" value="" style="endArrow=none;html=1;rounded=0;" parent="1" edge="1">
          <mxGeometry width="50" height="50" relative="1" as="geometry">
            <mxPoint x="200" y="755" as="sourcePoint" />
            <mxPoint x="250" y="705" as="targetPoint" />
          </mxGeometry>
        </mxCell>
        <mxCell id="bg0LxutkBQc4Puj3F7RM-61" value="" style="endArrow=none;html=1;rounded=0;exitX=0;exitY=1;exitDx=0;exitDy=0;entryX=1;entryY=1;entryDx=0;entryDy=0;" parent="1" source="bg0LxutkBQc4Puj3F7RM-54" target="bg0LxutkBQc4Puj3F7RM-54" edge="1">
          <mxGeometry width="50" height="50" relative="1" as="geometry">
            <mxPoint x="430" y="680" as="sourcePoint" />
            <mxPoint x="480" y="630" as="targetPoint" />
          </mxGeometry>
        </mxCell>
        <mxCell id="bg0LxutkBQc4Puj3F7RM-62" value="1" style="text;html=1;align=center;verticalAlign=middle;whiteSpace=wrap;rounded=0;" parent="1" vertex="1">
          <mxGeometry x="310" y="650" width="60" height="30" as="geometry" />
        </mxCell>
        <mxCell id="bg0LxutkBQc4Puj3F7RM-63" value="M" style="text;html=1;align=center;verticalAlign=middle;whiteSpace=wrap;rounded=0;" parent="1" vertex="1">
          <mxGeometry x="160" y="720" width="60" height="30" as="geometry" />
        </mxCell>
        <mxCell id="bg0LxutkBQc4Puj3F7RM-66" value="" style="endArrow=none;html=1;rounded=0;exitX=0;exitY=0;exitDx=0;exitDy=0;entryX=0;entryY=0.5;entryDx=0;entryDy=0;" parent="1" source="bg0LxutkBQc4Puj3F7RM-49" target="bg0LxutkBQc4Puj3F7RM-58" edge="1">
          <mxGeometry width="50" height="50" relative="1" as="geometry">
            <mxPoint x="195" y="745" as="sourcePoint" />
            <mxPoint x="245" y="700" as="targetPoint" />
          </mxGeometry>
        </mxCell>
        <mxCell id="OWbVy4WTH5FNAHsUCkrL-2" value="Be" style="rhombus;whiteSpace=wrap;html=1;" vertex="1" parent="1">
          <mxGeometry x="400" y="390" width="80" height="80" as="geometry" />
        </mxCell>
        <mxCell id="OWbVy4WTH5FNAHsUCkrL-3" value="" style="endArrow=none;html=1;rounded=0;entryX=1;entryY=0.5;entryDx=0;entryDy=0;exitX=0;exitY=0.5;exitDx=0;exitDy=0;" edge="1" parent="1" source="skWBgFnhxe72LEznJVyA-4" target="OWbVy4WTH5FNAHsUCkrL-2">
          <mxGeometry width="50" height="50" relative="1" as="geometry">
            <mxPoint x="380" y="590" as="sourcePoint" />
            <mxPoint x="430" y="540" as="targetPoint" />
          </mxGeometry>
        </mxCell>
        <mxCell id="OWbVy4WTH5FNAHsUCkrL-4" value="" style="endArrow=none;html=1;rounded=0;entryX=0;entryY=0.5;entryDx=0;entryDy=0;exitX=1;exitY=0.5;exitDx=0;exitDy=0;" edge="1" parent="1" source="skWBgFnhxe72LEznJVyA-2" target="OWbVy4WTH5FNAHsUCkrL-2">
          <mxGeometry width="50" height="50" relative="1" as="geometry">
            <mxPoint x="380" y="590" as="sourcePoint" />
            <mxPoint x="430" y="540" as="targetPoint" />
          </mxGeometry>
        </mxCell>
        <mxCell id="OWbVy4WTH5FNAHsUCkrL-8" value="M" style="text;html=1;align=center;verticalAlign=middle;resizable=0;points=[];autosize=1;strokeColor=none;fillColor=none;" vertex="1" parent="1">
          <mxGeometry x="205" y="400" width="30" height="30" as="geometry" />
        </mxCell>
        <mxCell id="OWbVy4WTH5FNAHsUCkrL-9" value="1&lt;div&gt;&lt;br&gt;&lt;/div&gt;" style="text;html=1;align=center;verticalAlign=middle;resizable=0;points=[];autosize=1;strokeColor=none;fillColor=none;" vertex="1" parent="1">
          <mxGeometry x="640" y="405" width="30" height="40" as="geometry" />
        </mxCell>
      </root>
    </mxGraphModel>
  </diagram>
</mxfile>
